<svg xmlns="http://www.w3.org/2000/svg" focusable="false" role="img" width="32" height="32" viewBox="0 0 32 32">
  <path d="M8.711,0.237 L8.711,2.489 L23.253,2.489 L23.253,0.237 L24.753,0.237 L24.753,2.489 L31.2315,2.4897 C31.6455,2.4897 31.9815,2.8257 31.9815,3.2397 L31.9815,6.8787 L30.4815,6.8787 L30.4815,3.9897 L24.753,3.989 L24.753,6.613 L23.253,6.613 L23.253,3.989 L8.711,3.989 L8.711,6.613 L7.211,6.613 L7.211,3.989 L1.4825,3.9897 L1.482,9.743 L31.231,9.743 C31.645,9.743 31.981,10.079 31.981,10.493 L31.981,30.668 C31.981,31.082 31.645,31.418 31.231,31.418 L0.732,31.418 C0.318,31.418 -0.018,31.082 -0.018,30.668 L-0.018,10.493 C-0.018,10.4504031 -0.0144429057,10.4086319 -0.00760974796,10.3679675 L-0.0175,10.3687 L-0.0175,3.2397 C-0.0175,2.8257 0.3185,2.4897 0.7325,2.4897 L7.211,2.489 L7.211,0.237 L8.711,0.237 Z M30.481,11.243 L1.482,11.243 L1.482,29.918 L30.481,29.918 L30.481,11.243 Z M18.5512,15.0696 C20.9602,15.0696 22.2662,16.2366 22.2662,18.2316 C22.2662,20.0276 21.2222,21.2246 19.4562,22.8056 L18.0292,24.0946 L18.0292,24.1406 L22.4502,24.1406 L22.4502,25.8906 L15.2662,25.8906 L15.2662,24.3096 L17.5692,22.1146 C18.9502,20.7946 19.7942,19.8276 19.7942,18.5696 C19.7942,17.4026 19.0582,16.8956 17.7532,16.8956 C16.8472,16.8956 16.0642,17.1416 15.4512,17.4176 L15.4512,15.7296 C16.1872,15.3616 17.1852,15.0696 18.5512,15.0696 Z M13.2216,15.1924 L13.2216,25.8904 L10.8726,25.8904 L10.8726,17.5254 L9.0776,17.6784 L9.0776,16.3434 L11.9936,15.1924 L13.2216,15.1924 Z"/>
  <rect width="100%" height="100%" style="opacity: 0;">
    <title>12 Month Guarantee</title>
  </rect>
</svg>