<svg xmlns="http://www.w3.org/2000/svg" focusable="false" role="img" width="32" height="32" viewBox="0 0 32 32">
  <path d="M9.4068,21.3688 C11.5388,21.3688 13.2738,23.1028 13.2738,25.2348 C13.2738,27.3678 11.5388,29.1018 9.4068,29.1018 C7.2748,29.1018 5.5398,27.3678 5.5398,25.2348 C5.5398,23.1028 7.2748,21.3688 9.4068,21.3688 Z M24.1641,21.3688 C26.2961,21.3688 28.0301,23.1028 28.0301,25.2348 C28.0301,27.3678 26.2961,29.1018 24.1641,29.1018 C22.0321,29.1018 20.2971,27.3678 20.2971,25.2348 C20.2971,23.1028 22.0321,21.3688 24.1641,21.3688 Z M9.4068,22.8688 C8.1018,22.8688 7.0398,23.9308 7.0398,25.2348 C7.0398,26.5398 8.1018,27.6018 9.4068,27.6018 C10.7118,27.6018 11.7738,26.5398 11.7738,25.2348 C11.7738,23.9308 10.7118,22.8688 9.4068,22.8688 Z M24.1641,22.8688 C22.8591,22.8688 21.7971,23.9308 21.7971,25.2348 C21.7971,26.5398 22.8591,27.6018 24.1641,27.6018 C25.4691,27.6018 26.5301,26.5398 26.5301,25.2348 C26.5301,23.9308 25.4691,22.8688 24.1641,22.8688 Z M19.683,24.063 L19.683,25.563 L13.888,25.563 L13.888,24.063 L19.683,24.063 Z M2.7503,2.9437 C3.0463,2.8347 3.3793,2.9247 3.5813,3.1657 L3.5813,3.1657 L15.0103,16.7737 L16.2153,16.7737 L16.2153,11.9397 C16.2153,11.5257 16.5513,11.1897 16.9653,11.1897 L16.9653,11.1897 L23.5093,11.1897 C23.6553,11.1897 23.7983,11.2327 23.9203,11.3127 C25.3533,12.2527 26.5283,15.0147 26.9763,16.1887 C27.8953,16.2467 29.6963,16.5677 30.8643,18.1277 C32.1943,19.9027 31.8523,24.3737 31.8083,24.8777 C31.7753,25.2657 31.4503,25.5637 31.0613,25.5637 L31.0613,25.5637 L28.3663,25.5637 L28.3663,24.0637 L30.3583,24.0637 C30.4353,22.3387 30.3163,19.8977 29.6643,19.0267 C28.5593,17.5527 26.5273,17.6787 26.5033,17.6797 L26.3939091,17.6796026 C26.1045593,17.6572926 25.8399667,17.4620333 25.7413,17.1767 C25.2693,15.8167 24.2083,13.4877 23.2603,12.6897 L23.2603,12.6897 L17.7153,12.6897 L17.7153,17.5237 C17.7153,17.9377 17.3793,18.2737 16.9653,18.2737 L16.9653,18.2737 L3.6183,18.2737 L3.6183,24.0637 L5.1603,24.0637 L5.1603,25.5637 L2.8683,25.5637 C2.4543,25.5637 2.1183,25.2277 2.1183,24.8137 L2.1183,24.8137 L2.1183,17.5237 C2.1183,17.1087 2.4543,16.7737 2.8683,16.7737 L2.8683,16.7737 L13.0513,16.7737 L3.7573,5.7077 L3.7573,9.9357 C4.8333,10.3077 5.6133,11.3187 5.6133,12.5197 C5.6133,14.0327 4.3823,15.2637 2.8683,15.2637 C1.3553,15.2637 0.1243,14.0327 0.1243,12.5197 L0.1243,12.5197 L1.6243,12.5197 C1.6243,13.2057 2.1823,13.7637 2.8683,13.7637 C3.5543,13.7637 4.1133,13.2057 4.1133,12.5197 C4.1133,11.8337 3.5543,11.2757 2.8683,11.2757 L2.8683,11.2757 L2.8683,11.2707 L2.2573,11.2707 L2.2573,3.6487 C2.2573,3.3327 2.4543,3.0517 2.7503,2.9437 Z M22.8181,14.5354 L22.8181,16.0354 L20.8101,16.0354 L20.8101,18.5774 L19.3101,18.5774 L19.3101,15.2854 C19.3101,14.8714 19.6461,14.5354 20.0601,14.5354 L20.0601,14.5354 L22.8181,14.5354 Z"/>
  <rect width="100%" height="100%" style="opacity: 0;">
    <title>24Hr Roadside Assistance</title>
  </rect>
</svg>