<svg xmlns="http://www.w3.org/2000/svg" focusable="false" role="img" width="32" height="32" viewBox="0 0 32 32">
  <path d="M22.9342,3.387 C24.1642,3.387 25.3422,4.274 25.7982,5.545 L27.0025,8.942 L30.6002,8.9429 C31.4652,8.9429 32.0462,9.5569 32.0462,10.4709 L32.0462,12.2549 C32.0462,13.1649 31.4652,13.7759 30.6002,13.7759 L30.1465,13.775 L30.220244,13.8453947 C30.6787556,14.3209792 30.9342,15.0073333 30.9342,15.792 L30.9335,22.744 L30.9348,22.7447 L30.9348,26.7197 C30.9348,27.6177 30.3458,28.2207 29.4698,28.2207 L25.7798,28.2207 C24.8658,28.2207 23.8788,27.6467 23.8788,26.7197 L23.8788,25.5257 L25.3788,25.5257 L25.3788,26.6087 C25.4658,26.6617 25.6348,26.7207 25.7798,26.7207 L29.4268,26.7207 L29.4345,22.745 L29.4342,22.745 L29.4335,20.442 L25.2272,20.4429 C24.5302,20.4429 23.9342,19.9699 23.7772,19.2929 L23.2732,17.7699 C23.1372,17.1929 23.2502,16.6719 23.5652,16.2749 C23.9022,15.8519 24.4262,15.6099 25.0042,15.6099 L29.4255411,15.6088066 C29.3934751,15.2768991 29.2735172,15.0012621 29.0852,14.835 L27.3375,13.22 L4.9845,13.22 L3.0812,14.874 C2.83981979,15.087125 2.67534252,15.3523876 2.62091426,15.6098092 L7.1762,15.6099 C7.7542,15.6099 8.2782,15.8519 8.6152,16.2749 C8.9302,16.6719 9.0432,17.1929 8.9252,17.7049 L8.3842,19.3589 C8.2462,19.9699 7.6502,20.4429 6.9532,20.4429 L2.6005,20.442 L2.601,26.7197 C2.601,26.6687 2.71,26.7207 2.835,26.7207 L6.525,26.7207 C6.616,26.7207 6.666,26.6917 6.674,26.6837 L6.657,25.5257 L8.157,25.5257 L8.157,26.7197 C8.157,27.5747 7.455,28.2207 6.525,28.2207 L2.835,28.2207 C1.983,28.2207 1.101,27.6587 1.101,26.7197 L1.1012,15.792 C1.1012,15.0604786 1.45021981,14.3279931 2.05926965,13.7753631 L1.5715,13.7759 C0.6705,13.7759 -0.0095,13.1219 -0.0095,12.2549 L-0.0095,10.4709 C-0.0095,9.5999 0.6705,8.9429 1.5715,8.9429 L5.1785,8.942 L6.2302,5.641 C6.6522,4.333 7.8772,3.387 9.1432,3.387 L22.9342,3.387 Z M27.685,21.995 L27.685,23.495 L4.352,23.495 L4.352,21.995 L27.685,21.995 Z M7.1762,17.1099 L2.6005,17.109 L2.6005,18.942 L6.9532,18.9429 L7.4822,17.3009 C7.4872,17.2669 7.4532,17.2249 7.4412,17.2089 C7.4022,17.1609 7.3132,17.1099 7.1762,17.1099 Z M29.4335,17.109 L25.0042,17.1099 C24.8672,17.1099 24.7772,17.1609 24.7392,17.2089 C24.7272,17.2249 24.6932,17.2669 24.7172,17.3669 L25.2212,18.8899 L29.4335,18.933 L29.4335,17.109 Z M27.5355,10.442 L28.0202,11.808 L28.5255,12.275 L30.5452,12.2759 L30.546075,12.2654 L30.546075,12.2654 L30.5462,10.4709 C30.5462,10.4619 30.5462,10.4529 30.5452,10.4449 L27.5355,10.442 Z M4.7005,10.442 L1.5715,10.4429 L1.4905,12.2549 L3.7845,12.275 L4.2452,11.876 L4.7005,10.442 Z M22.9342,4.887 L9.1432,4.887 C8.5192,4.887 7.8822,5.408 7.6592,6.099 L5.8675,11.72 L26.3965,11.72 L24.3852,6.049 C24.1442,5.377 23.5342,4.887 22.9342,4.887 Z"/>
  <rect width="100%" height="100%" style="opacity: 0;">
    <title>Auto</title>
  </rect>
</svg>