<svg xmlns="http://www.w3.org/2000/svg" focusable="false" role="img" width="32" height="32" viewBox="0 0 32 32">
  <path d="M22.9346,7.1678 C24.1646,7.1678 25.3416,8.0548 25.7976,9.3258 L27.0035,12.7234 L30.6002,12.7236 C31.4652,12.7236 32.0462,13.3376 32.0462,14.2516 L32.0462,16.0356 C32.0462,16.9456 31.4652,17.5566 30.6002,17.5566 L30.1475,17.5564 L30.2196637,17.6261947 C30.6783153,18.1017792 30.9346,18.7881333 30.9346,19.5728 L30.9348,30.5 C30.9348,31.398 30.3458,32.001 29.4698,32.001 L25.7798,32.001 C24.8658,32.001 23.8788,31.427 23.8788,30.5 L23.8788,29.307 L25.3788,29.307 L25.3788,30.389 C25.4658,30.442 25.6348,30.501 25.7798,30.501 L29.4268,30.501 L29.4348,25.418 L29.4345,24.2224 L25.2272,24.2231 C24.5302,24.2231 23.9342,23.7501 23.7772,23.0731 L23.2732,21.5501 C23.1372,20.9731 23.2502,20.4521 23.5652,20.0561 C23.9022,19.6321 24.4262,19.3901 25.0042,19.3901 L29.4259165,19.3893265 C29.3937996,19.0572977 29.2737241,18.7810257 29.0846,18.6148 L27.3375,17.0004 L4.9845,17.0004 L3.0812,18.6548 C2.83998992,18.8669681 2.67557441,19.1325019 2.62102951,19.3899745 L7.1762,19.3901 C7.7542,19.3901 8.2782,19.6321 8.6152,20.0561 C8.9302,20.4521 9.0432,20.9731 8.9252,21.4851 L8.3842,23.1391 C8.2462,23.7501 7.6502,24.2231 6.9532,24.2231 L2.6005,24.2224 L2.601,30.5 C2.601,30.45 2.71,30.501 2.835,30.501 L6.525,30.501 C6.616,30.501 6.666,30.472 6.675,30.464 L6.657,29.307 L8.157,29.307 L8.157,30.5 C8.157,31.355 7.455,32.001 6.525,32.001 L2.835,32.001 C1.983,32.001 1.101,31.439 1.101,30.5 L1.1012,19.5728 C1.1012,18.8402967 1.45021981,18.1077934 2.06021635,17.5561098 L1.5715,17.5566 C0.6705,17.5566 -0.0095,16.9026 -0.0095,16.0356 L-0.0095,14.2516 C-0.0095,13.3806 0.6705,12.7236 1.5715,12.7236 L5.1785,12.7234 L5.7122,11.0478 L7.1422,11.5028 L5.8685,15.5004 L26.3965,15.5004 L24.3846,9.8298 C24.1476,9.1688 23.5236,8.6678 22.9346,8.6678 L19.3126,8.6678 L19.3126,7.1678 L22.9346,7.1678 Z M27.685,25.775 L27.685,27.275 L4.352,27.275 L4.352,25.775 L27.685,25.775 Z M7.1762,20.8901 L2.6005,20.8894 L2.6005,22.7224 L6.9532,22.7231 L7.4822,21.0811 C7.4842,21.0571 7.4602,21.0141 7.4412,20.9891 C7.4022,20.9411 7.3132,20.8901 7.1762,20.8901 Z M29.4345,20.8894 L25.0042,20.8901 C24.8672,20.8901 24.7782,20.9411 24.7392,20.9891 C24.7202,21.0141 24.6962,21.0571 24.7172,21.1471 L25.2212,22.6701 L29.4345,22.7134 L29.4345,20.8894 Z M27.5355,14.2234 L28.0196,15.5888 L28.5255,16.0564 L30.5452,16.0566 L30.546075,16.0461 L30.546075,16.0461 L30.5462,14.2516 C30.5462,14.2426 30.5462,14.2336 30.5452,14.2246 L27.5355,14.2234 Z M4.7005,14.2234 L1.5715,14.2236 L1.4905,16.0356 L3.7845,16.0564 L4.2452,15.6568 L4.7005,14.2234 Z M11.7901,0.6414 C15.1181,0.6414 17.8251,3.3484 17.8251,6.6754 C17.8251,10.0034 15.1181,12.7104 11.7901,12.7104 C8.4631,12.7104 5.7561,10.0034 5.7561,6.6754 C5.7561,3.3484 8.4631,0.6414 11.7901,0.6414 Z M12.4351,2.9017 L11.1451,2.9017 L11.1451,6.0067 L8.0401,6.0067 L8.0401,7.3447 L11.1451,7.3447 L11.1451,10.4497 L12.4351,10.4497 L12.4351,7.3447 L15.5401,7.3447 L15.5401,6.0067 L12.4351,6.0067 L12.4351,2.9017 Z"/>
  <rect width="100%" height="100%" style="opacity: 0;">
    <title>Better Car Replacement</title>
  </rect>
</svg>