<svg xmlns="http://www.w3.org/2000/svg" focusable="false" role="img" width="32" height="32" viewBox="0 0 32 32">
  <path d="M27.838,15.2038 L19.504,11.9858 C19.803,11.2048 20.096,10.3858 20.388,9.5478 C20.491,9.2518 20.588,8.9728 20.678,8.7178 L29.241,11.7418 C28.919,12.5238 28.384,13.8318 27.838,15.2038 L27.838,15.2038 Z M24.134,28.6708 C23.599,29.0018 22.908,29.0298 22.099,28.8818 L22.099,23.2388 L25.638,22.9058 C25.63,22.9938 25.622,23.0778 25.613,23.1658 C25.422,25.2218 25.16,28.0368 24.134,28.6708 L24.134,28.6708 Z M16.014,26.6698 L16.014,23.8118 L20.599,23.3798 L20.599,28.4718 C19.833,28.2078 18.997,27.8688 18.09,27.4958 C17.448,27.2318 16.743,26.9498 16.014,26.6698 L16.014,26.6698 Z M9.639,24.9138 L11.763,18.0628 C12.75,18.0418 13.711,17.9928 14.514,17.8998 L14.514,26.1218 C12.689,25.5058 11.085,25.1668 9.639,24.9138 L9.639,24.9138 Z M1.603,18.9828 C1.655,18.8278 2.023,18.7438 2.574,18.7438 C3.101,18.7438 3.796,18.8218 4.542,18.9838 L3.308,22.3498 C2.407,21.6478 1.138,20.3698 1.603,18.9828 L1.603,18.9828 Z M8.146,24.6658 C6.69,24.4318 5.478,24.2238 4.47,23.7968 L6.524,17.9898 C7.276,18.0218 8.671,18.0718 10.188,18.0768 L8.146,24.6658 Z M17.479,16.1318 C18,15.3918 18.481,14.4468 18.941,13.3768 L27.289,16.5998 C27.171,16.9028 27.055,17.2018 26.944,17.4908 L17.479,16.1318 Z M25.801,21.3848 L16.014,22.3058 L16.014,17.5368 C16.065,17.5098 16.117,17.4888 16.167,17.4578 L26.411,18.9288 C26.296,19.2498 26.197,19.5388 26.121,19.7788 C25.979,20.2248 25.881,20.7768 25.801,21.3848 L25.801,21.3848 Z M23.74,3.5728 L29.975,5.7778 L28.541,9.8338 L22.306,7.6298 L23.74,3.5728 Z M31.889,4.8638 L22.826,1.6588 L20.869,7.1948 L19.793,6.8148 L19.53,7.4938 C19.371,7.9068 19.183,8.4448 18.971,9.0548 C18.187,11.3098 16.554,16.0018 15.115,16.2938 C12.591,16.8058 6.094,16.4678 6.028,16.4648 L5.475,16.4348 L5.062,17.5618 C3.525,17.1948 0.754,16.7948 0.181,18.5068 C-0.668,21.0418 1.612,23.0138 2.769,23.8218 L2.533,24.4638 L3.076,24.7808 C4.472,25.5938 6.129,25.8608 8.046,26.1708 C9.794,26.4528 11.774,26.7718 14.099,27.5628 C15.312,27.9748 16.434,28.4368 17.52,28.8838 C19.613,29.7438 21.406,30.4808 22.944,30.4808 C23.657,30.4808 24.315,30.3228 24.923,29.9468 C26.584,28.9188 26.85,26.0648 27.107,23.3048 C27.22,22.0858 27.328,20.9338 27.55,20.2328 C28.24,18.0618 30.902,11.6498 30.928,11.5848 L31.233,10.8538 L29.933,10.3948 L31.889,4.8638 Z"/>
  <rect width="100%" height="100%" style="opacity: 0;">
    <title>Bodily Injury</title>
  </rect>
</svg>