<svg xmlns="http://www.w3.org/2000/svg" focusable="false" role="img" width="32" height="32" viewBox="0 0 32 32">
  <path d="M15.7952,19.277 C19.1932,19.294 22.3812,20.633 24.7712,23.048 C27.1622,25.463 28.4702,28.664 28.4533636,32.062 L26.9532,32.054 C26.9682,29.057 25.8152,26.233 23.7052,24.104 C21.5972,21.974 18.7852,20.792 15.7872,20.777 C12.8182,20.798 9.9672,21.916 7.8362,24.025 C5.7062,26.134 4.5252,28.946 4.5112,31.944 L3.0112,31.936 C3.0272,28.538 4.3672,25.35 6.7812,22.959 C9.1962,20.568 12.3832,19.241 15.7952,19.277 Z M15.9635,0.1021 C18.3345,0.1141 20.5595,1.0481 22.2275,2.7331 C23.8955,4.4181 24.8075,6.6511 24.7956169,9.0221 C24.7835,11.3931 23.8495,13.6181 22.1645,15.2861 C20.4905,16.9431 18.2745,17.8541 15.9215,17.8541 L15.8755,17.8541 C13.5045,17.8421 11.2805,16.9081 9.6125,15.2231 C7.9445,13.5391 7.0325,11.3051 7.04438307,8.9341 C7.0685,4.0551 11.0455,0.1021 15.9195,0.1021 L15.9635,0.1021 Z M23.287797,9.32209045 L23.1973101,9.4846186 C22.6764319,10.3533213 21.6030579,11.0045789 20.7559,11.141 C20.5879,11.196 20.4759,11.1950012 20.3639,11.1950012 L20.3639,11.1950012 L18.0719,11.184 C17.6809,11.182 17.3459,11.012 17.0689,10.731 C16.9009,10.619 16.5669,10.45 16.0639,10.447 C15.5609,10.445 15.1689,10.555 15.0559,10.722 C14.8309,11 14.4389,11.166 14.0479,11.164 L14.0479,11.164 L11.7569,11.152 C10.727055,11.1474148 9.13459637,10.4052926 8.55434798,9.35442978 C8.64388694,11.1701371 9.38968395,12.8662656 10.6785,14.1681 C12.0645,15.5681 13.9135,16.3441 15.8835,16.3541 L15.9205,16.3541 C17.8775,16.3541 19.7185,15.5971 21.1095,14.2201 C22.4365312,12.9053913 23.2029137,11.1764854 23.287797,9.32209045 Z M8.5442,8.9511 L8.5462,9.0621 L23.2948511,9.08953274 C23.2948862,9.08718764 23.2949201,9.08484236 23.294953,9.0824969 L8.5442,8.9511 Z M13.0609,7.358 C12.3349,7.187 11.6079,7.351 11.5499,7.742 C11.4919,8.133 12.0489,8.583 12.8299,8.754 C13.5559,8.926 14.2829,8.762 14.3419,8.371 C14.4549,7.98 13.8979,7.53 13.0609,7.358 Z M20.7169,7.731 C20.6069,7.34 19.9369,7.169 19.2089,7.333 C18.4259,7.497 17.8649,7.941 17.9189,8.333 C17.9729,8.724 18.6419,8.895 19.4259,8.731 C20.2089,8.567 20.7699,8.123 20.7169,7.731 Z M15.9565,1.6021 L15.9195,1.6021 C13.1819467,1.6021 10.7847792,3.10299563 9.51240121,5.32807373 L10.2759,5.333 C10.3719,5.33342857 10.4574306,5.33385714 10.5238329,5.334207 L10.6669,5.335 L21.5099,5.388 C21.5659,5.388 21.7339,5.389 21.9019,5.39 L21.9019,5.39 L22.3685284,5.39068968 C22.0451806,4.81158544 21.6409079,4.27300451 21.1615,3.7891 C19.7745,2.3881 17.9265,1.6121 15.9565,1.6021 Z"/>
  <rect width="100%" height="100%" style="opacity: 0;">
    <title>Burglar</title>
  </rect>
</svg>