<svg xmlns="http://www.w3.org/2000/svg" focusable="false" role="img" width="32" height="32" viewBox="0 0 32 32">
  <path d="M25.949,6.6481 L26.418,6.6541 L26.82,7.4881 L26.555,7.8591 C26.121,8.4851 26.025,9.2281 25.998,9.9441 C27.484,10.8741 28.655,12.2541 29.476,14.0471 C29.501,14.1011 29.531,14.1791 29.562,14.2671 L30.922,14.2671 C31.536,14.2671 32.036,14.7661 32.036,15.3801 L32.036,18.1701 C32.036,18.7841 31.536,19.2841 30.922,19.2841 L29.739,19.2841 C29.605,19.5831 29.415,19.9061 29.022,20.4601 C27.616,22.4391 26.261,22.8121 24.385,23.3281 C23.986,23.4381 23.553,23.5571 23.077,23.7031 L23.171,25.9391 C23.184,26.2411 23.072,26.5391 22.863,26.7571 C22.654,26.9741 22.361,27.0991 22.059,27.0991 L19.15,27.0991 C18.754,27.0991 18.385,26.8861 18.187,26.5411 L18.009,26.2381 C17.775,25.8401 17.532,25.4281 17.326,24.9831 C17.359,24.9661 17.318,24.9731 17.191,24.9601 C15.54,24.9591 14.108,24.9291 12.779,24.8541 C12.285,24.8261 11.814,24.7451 11.323,24.6541 L11.394,25.9261 C11.41,26.2301 11.299,26.5311 11.09,26.7521 C10.881,26.9731 10.587,27.0991 10.282,27.0991 L7.38,27.0991 C6.977,27.0991 6.605,26.8831 6.408,26.5341 C5.374,24.6981 5.056,22.6231 4.797,20.4811 C4.784,20.3711 4.73,20.2281 4.652,20.0991 C3.947,18.9221 3.422,16.8541 3.458,15.3921 C3.49062688,14.0604081 3.74662465,12.8481421 4.22092964,11.7787218 C4.18729743,11.7690577 4.15167811,11.7573836 4.1203,11.7471 C3.7313,11.6191 3.1423,11.4261 2.8243,10.8381 C2.4573,10.1611 2.6723,9.5411 2.8993,9.1111 C2.8753,9.1181 2.8513,9.1251 2.8293,9.1321 C2.2143,9.3161 1.4493,9.5451 0.7773,9.1611 C0.3793,8.9331 0.1093,8.5391 -0.0237,7.9921 C-0.1217,7.5901 0.1243,7.1841 0.5273,7.0861 C0.9293,6.9861 1.3343,7.2341 1.4333,7.6371 C1.4763,7.8141 1.5253,7.8601 1.5263,7.8611 C1.6503,7.9211 2.1563,7.7681 2.3993,7.6951 C3.0323,7.5051 3.9913,7.2191 4.5253,8.0261 C4.9293,8.6351 4.5673,9.2351 4.3513,9.5931 C4.1493,9.9291 4.1023,10.0481 4.1433,10.1231 C4.1783,10.1871 4.4343,10.2711 4.5883,10.3221 C4.68803333,10.3547493 4.80077906,10.3916926 4.91745943,10.4388381 C5.0539303,10.2271569 5.22555663,9.99614458 5.4464,9.7475 C6.0874,9.0275 6.8094,8.4025 7.5954,7.8905 L8.4154,9.1455 C7.7404,9.5865 7.1194,10.1245 6.5674,10.7445 C6.1484,11.2145 5.9824,11.5715 5.8214,11.9165 L5.77592397,11.8960266 C5.76720239,11.9120504 5.75789362,11.9277676 5.74801307,11.9431424 L5.796,11.9691 C5.265,12.9631 4.99,14.0951 4.958,15.4291 C4.93,16.5861 5.388,18.4081 5.939,19.3281 C6.125,19.6381 6.248,19.9841 6.286,20.3021 C6.525,22.2781 6.792,24.0481 7.607,25.6001 L9.873,25.6001 L9.721,22.8611 L10.64,23.0091 C10.909,23.0521 11.169,23.1001 11.422,23.1471 C11.929,23.2411 12.407,23.3301 12.864,23.3561 C14.162,23.4291 15.56,23.4611 17.188,23.4601 C17.554,23.4661 18.274,23.4581 18.687,24.3521 C18.868,24.7421 19.085,25.1091 19.301,25.4771 L19.373,25.6001 L21.655,25.6001 L21.572,23.6581 C21.544,22.9621 21.889,22.4981 22.599,22.2801 C23.105,22.1241 23.565,21.9981 23.988,21.8821 C25.795,21.3851 26.702,21.1351 27.798,19.5921 C28.313,18.8671 28.379,18.6791 28.501,18.3371 L28.678,17.8381 L29.227,17.7841 L30.536,17.7841 L30.536,15.7671 L28.444,15.7671 L28.29,15.2201 C28.239,15.0391 28.164,14.7841 28.113,14.6721 C27.382,13.0781 26.388,11.9221 25.075,11.1381 C24.683,10.9031 24.483,10.3701 24.495,9.9861 C24.51,9.5031 24.551,8.9781 24.684,8.4461 C24.101,8.7541 23.567,9.2841 22.984,9.9751 L22.474,10.5801 L21.897,10.0381 C21.463,9.6301 21.075,9.3051 20.711,9.0451 L21.583,7.8241 C21.83,8.0011 22.085,8.2021 22.351,8.4291 C23.287,7.4351 24.391,6.6651 25.949,6.6481 Z M24.1442,13.1724 C24.6372,13.1724 25.0372,13.5724 25.0372,14.0664 C25.0372,14.5594 24.6372,14.9594 24.1442,14.9594 C23.6502,14.9594 23.2502,14.5594 23.2502,14.0664 C23.2502,13.5724 23.6502,13.1724 24.1442,13.1724 Z M14.6641,3.5508 C17.5931,3.5508 20.0351,5.9478 19.9901,8.9218 C19.9901,9.3208 19.9461,9.7208 19.8571,10.1198 C19.7681,10.6088 19.5911,11.0968 19.3251,11.5408 C18.4371,13.1828 16.6611,14.2928 14.6641,14.2928 C13.3321,14.2928 12.1341,13.8488 11.2021,13.0498 C10.8021,12.7388 10.4921,12.3398 10.2251,11.9398 C9.6481,11.0968 9.2931,10.0308 9.2931,8.9218 C9.2931,5.9478 11.6901,3.5508 14.6641,3.5508 Z M15.0958,11.6597 C15.5358,11.6597 15.9498,11.4887 16.2618,11.1787 C16.5748,10.8667 16.7468,10.4517 16.747804,10.0107 C16.7498,9.0997 16.0108,8.3577 15.0988,8.3547 L15.0988,8.3547 L15.0557865,8.3538 L15.0597865,6.8498 L16.2998,6.8537 L16.3018,5.9527 L15.0617865,5.9498 L15.0634,5.3599 L14.1624,5.3579 L14.1607511,5.94888726 C13.2632261,5.96231404 12.5357724,6.69607321 12.5328,7.5977 C12.5328,8.0387 12.7038,8.4547 13.0148,8.7667 C13.3258,9.0797 13.7418,9.2527 14.1818,9.2537 L14.1537865,9.2518 L14.1507865,10.7568 L13.0118,10.7557 L13.0098,11.6557 L14.1487865,11.6568 L14.1474,12.4829 L15.0474,12.4849 L15.0487865,11.6588 Z M15.0507865,10.7588 L15.0537865,9.2548 L15.0968,9.2557 C15.2584,9.2557 15.41104,9.30626 15.538336,9.399188 L15.6288,9.4767 C15.7708,9.6187 15.8478,9.8077 15.8478,10.0087 C15.8478,10.2097 15.7688,10.3987 15.6268,10.5397 C15.4848,10.6817 15.2958,10.7597 15.0958,10.7597 L15.0958,10.7597 L15.0507865,10.7588 Z M14.1587865,6.8498 L14.1555133,8.35218315 C13.9652078,8.34521488 13.7881176,8.26797059 13.6528,8.1317 C13.5108,7.9897 13.4328,7.8007 13.4338,7.5997 C13.4338,7.1857 13.7718,6.8487 14.1858,6.8487 L14.1587865,6.8498 Z"/>
  <rect width="100%" height="100%" style="opacity: 0;">
    <title>Deductible Fund</title>
  </rect>
</svg>