<svg xmlns="http://www.w3.org/2000/svg" focusable="false" role="img" width="32" height="32" viewBox="0 0 32 32">
  <path d="M26.8926,-0.0999 C27.5546,-0.0999 28.0936,0.4391 28.0936,1.1021 L28.0936,1.1021 L28.0936,31.3081 C28.0936,31.7221 27.7576,32.0581 27.3436,32.0581 L27.3436,32.0581 L5.1076,32.0581 C4.4446,32.0581 3.9056,31.5191 3.9056,30.8571 L3.9056,30.8571 L3.9056,1.1151 C3.9056,0.4551 4.4436,-0.0829 5.1036,-0.0829 L5.1036,-0.0829 L5.4236,-0.0829 L5.4236,1.4171 L5.4056,1.4171 L5.4056,30.5581 L26.5936,30.5581 L26.5936,1.4001 L7.6996,1.4001 L7.6996,-0.0999 Z M22.5416,7.9535 L22.5416,8.8635 L21.0096,8.8635 L21.0096,13.4845 L19.7886,13.4845 L19.7886,8.8635 L18.2646,8.8635 L18.2646,7.9535 L22.5416,7.9535 Z M13.4591,7.9538 L13.4591,8.8638 L11.0651,8.8638 L11.0651,10.2038 L12.9241,10.2038 L12.9241,11.0978 L11.0651,11.0978 L11.0651,12.5748 L13.5151,12.5748 L13.5151,13.4838 L9.8521,13.4838 L9.8521,7.9538 L13.4591,7.9538 Z M17.9006,7.9538 L17.9006,8.8638 L15.5546,8.8638 L15.5546,10.3558 L17.3816,10.3558 L17.3816,11.2578 L15.5546,11.2578 L15.5546,13.4838 L14.3336,13.4838 L14.3336,7.9538 L17.9006,7.9538 Z"/>
  <rect width="100%" height="100%" style="opacity: 0;">
    <title>Document EFT</title>
  </rect>
</svg>