<svg xmlns="http://www.w3.org/2000/svg" focusable="false" role="img" width="32" height="32" viewBox="0 0 32 32">
  <path d="M32,23.726 L32,25.227 L-2.16840434e-19,25.238 L-2.16840434e-19,23.738 L32,23.726 Z M14.7265,6.7586 L14.3435,8.2526 L12.4035,12.0096 L15.2575,14.7636 L15.4625,18.6956 L17.5545,16.1786 L16.3105,12.1496 L18.4275,6.7586 L20.0405,6.7586 L20.0365,6.7646 L31.9935,6.7646 L31.9935,8.2656 L19.4485,8.2656 L17.9005,12.2096 L19.2285,16.5166 L14.1645,22.6056 L13.7905,15.4376 L10.5555,12.3156 L12.6465,8.2656 L-0.0005,8.2656 L-0.0005,6.7646 L13.1935,6.7646 L13.1945,6.7586 L14.7265,6.7586 Z M3.936,15.894 L3.936,17.394 L1.183,17.394 L1.183,15.894 L3.936,15.894 Z M11.403,15.894 L11.403,17.394 L6.996,17.394 L6.996,15.894 L11.403,15.894 Z M25.07,15.894 L25.07,17.394 L20.663,17.394 L20.663,15.894 L25.07,15.894 Z M30.884,15.894 L30.884,17.394 L28.13,17.394 L28.13,15.894 L30.884,15.894 Z"/>
  <rect width="100%" height="100%" style="opacity: 0;">
    <title>Earthquake</title>
  </rect>
</svg>