<svg xmlns="http://www.w3.org/2000/svg" focusable="false" role="img" width="32" height="32" viewBox="0 0 32 32">
  <path d="M18.479,8.6826 L18.479,10.1826 L1.964,10.1826 C1.818,10.1826 1.7,10.3016 1.7,10.4476 L1.7,23.7306 C1.7,23.8756 1.818,23.9946 1.964,23.9946 L25.356,23.9946 C25.502,23.9946 25.621,23.8756 25.621,23.7306 L25.621,13.9636 L27.121,13.9636 L27.121,23.7306 C27.121,24.7026 26.329,25.4946 25.356,25.4946 L1.964,25.4946 C0.991,25.4946 0.2,24.7026 0.2,23.7306 L0.2,10.4476 C0.2,9.4746 0.991,8.6826 1.964,8.6826 L18.479,8.6826 Z M28.7533,2.3889 L29.958,3.6403 L30.4709,3.1682 L31.4499,4.2472 L30.968,4.6893 L31.7393,5.4909 C31.8783,5.6359 31.9533,5.8309 31.9483,6.0319 C31.9423,6.2329 31.8563,6.4229 31.7093,6.5599 L19.0983,18.2769 C18.9943,18.3739 18.8643,18.4389 18.7243,18.4649 L15.96,18.9743 L14.6289,20.2736 C14.4889,20.4106 14.3009,20.4866 14.1059,20.4866 L11.2799,20.4866 L10.4499,21.5536 C10.2139,21.8576 9.7859,21.9336 9.4589,21.7276 L7.8779,20.7356 L7.1149,21.7336 C6.9789,21.9116 6.7709,22.0196 6.5469,22.0286 C6.3289,22.0346 6.1079,21.9446 5.9589,21.7766 L5.3109,21.0486 L4.0059,22.6366 C3.8579,22.8176 3.6429,22.9106 3.4259,22.9106 C3.2589,22.9106 3.0899,22.8546 2.9499,22.7406 C2.6299,22.4766 2.5839,22.0046 2.8469,21.6846 L4.7099,19.4176 C4.8489,19.2486 5.0549,19.1486 5.2749,19.1436 C5.4669,19.1276 5.7039,19.2316 5.8499,19.3956 L6.4759,20.1006 L7.1009,19.2816 C7.3369,18.9726 7.7679,18.8946 8.0959,19.1006 L9.6819,20.0966 L10.3199,19.2756 C10.4619,19.0936 10.6809,18.9866 10.9119,18.9866 L13.8009,18.9866 L14.5361364,18.2684325 C14.5394557,18.2317924 14.545486,18.1951844 14.5543,18.1589 L15.3663,14.8559 C15.4023,14.7139 15.4783,14.5849 15.5853,14.4849 L25.1583,5.6109 L26.1783,6.7109 L16.7703,15.4329 L16.2883,17.3899 L18.2373,17.0299 L30.1283,5.9809 L27.6723,3.4289 L28.7533,2.3889 Z M25.3426,2.0783 L28.4656,5.5683 L27.3476,6.5683 L25.2436,4.2163 L21.9156,7.3003 L20.8956,6.1993 L25.3426,2.0783 Z"/>
  <rect width="100%" height="100%" style="opacity: 0;">
    <title>Esign</title>
  </rect>
</svg>