<svg xmlns="http://www.w3.org/2000/svg" focusable="false" role="img" width="32" height="32" viewBox="0 0 32 32">
  <path d="M11.2025,4.0768 C11.4845,3.7898 11.9895,3.7898 12.2725,4.0768 L12.2725,4.0768 L18.7935,10.7058 L18.7935,7.2798 L16.7055,7.2798 L16.7055,5.7798 L19.5435,5.7798 C19.9575,5.7798 20.2935,6.1148 20.2935,6.5298 L20.2935,6.5298 L20.2935,12.2308 L23.5295,15.5208 L22.4605,16.5728 L20.2935,14.3688 L20.2935,27.3978 C20.2935,27.8118 19.9575,28.1478 19.5435,28.1478 L19.5435,28.1478 L13.2615,28.1478 C12.8475,28.1478 12.5115,27.8118 12.5115,27.3978 L12.5115,27.3978 L12.5115,23.1718 L10.2735,23.1718 L10.2735,21.6718 L13.2615,21.6718 C13.6755,21.6718 14.0115,22.0078 14.0115,22.4218 L14.0115,22.4218 L14.0115,26.6478 L18.7935,26.6478 L18.7935,12.8438 L11.7375,5.6718 L4.3385,13.1928 L4.3385,26.6478 L10.2735,26.6478 L10.2735,28.1478 L3.5885,28.1478 C3.1745,28.1478 2.8385,27.8118 2.8385,27.3978 L2.8385,27.3978 L2.8385,14.7178 L1.0135,16.5728 L-0.0555,15.5208 Z M21.2902,20.8807 C23.1192,20.8947 24.6762,22.0577 25.2972,23.6747 C25.9532,23.2767 26.7142,23.0337 27.5362,23.0337 C29.9272,23.0337 31.8722,24.9787 31.8722,27.3697 L31.8722,27.3697 L30.3722,27.3697 C30.3722,25.8057 29.1002,24.5337 27.5362,24.5337 C25.9722,24.5337 24.6992,25.8057 24.6992,27.3697 L24.6992,27.3697 L23.1992,27.3697 C23.1992,26.4097 23.5232,25.5307 24.0532,24.8117 C23.8552,23.4507 22.6932,22.3917 21.2792,22.3807 L21.2792,22.3807 Z M9.015,15.521 L9.015,18.068 L7.515,18.068 L7.515,15.521 L9.015,15.521 Z M15.885,15.521 L15.885,18.068 L14.385,18.068 L14.385,15.521 L15.885,15.521 Z"/>
  <rect width="100%" height="100%" style="opacity: 0;">
    <title>Home</title>
  </rect>
</svg>