<svg xmlns="http://www.w3.org/2000/svg" focusable="false" role="img" width="32" height="32" viewBox="0 0 32 32">
  <path d="M16.0128,1.8488 C16.3028,1.5588 16.7708,1.5548 17.0648,1.8408 L17.0648,1.8408 L26.2608,10.7448 L26.2608,5.4848 L23.3058,5.4848 L23.3058,3.9848 L27.0108,3.9848 C27.4248,3.9848 27.7608,4.3208 27.7608,4.7348 L27.7608,4.7348 L27.7608,12.1978 L31.8748,16.1808 L30.8318,17.2588 L27.7608,14.2848 L27.7608,31.0608 C27.7608,31.4748 27.4248,31.8108 27.0108,31.8108 L27.0108,31.8108 L18.9498,31.8108 C18.5358,31.8108 18.1998,31.4748 18.1998,31.0608 L18.1998,31.0608 L18.1998,25.5708 L15.1798,25.5708 L15.1798,24.0708 L18.9498,24.0708 C19.3648,24.0708 19.6998,24.4058 19.6998,24.8208 L19.6998,24.8208 L19.6998,30.3108 L26.2608,30.3108 L26.2608,12.8328 L16.5518,3.4308 L15.0758,4.9058 C14.9328,4.3688 14.7388,3.8538 14.4958,3.3648 L14.4958,3.3648 Z M5.9796,15.18 C6.3526,15.231 6.7306,15.268 7.1176,15.268 C7.2396,15.268 7.3586,15.254 7.4796,15.249 L7.4796,15.249 L7.4796,30.311 L15.1806,30.311 L15.1806,31.811 L6.7296,31.811 C6.3156,31.811 5.9796,31.475 5.9796,31.061 L5.9796,31.061 Z M13.3927,16.073 L13.3927,19.292 L11.8927,19.292 L11.8927,16.073 L13.3927,16.073 Z M22.9268,16.0732 L22.9268,19.2922 L21.4268,19.2922 L21.4268,16.0732 L22.9268,16.0732 Z M3.459,14.4025 C3.947,14.6455 4.463,14.8395 5,14.9825 L5,14.9825 L2.733,17.2505 L1.672,16.1895 Z M7.0843,0.0005 C10.0563,0.0005 12.5963,1.8325 13.6483,4.4265 C13.8293,4.8715 13.9633,5.3395 14.0513,5.8245 C14.1243,6.2335 14.1693,6.6535 14.1693,7.0845 C14.1693,10.9615 11.0533,14.1065 7.1913,14.1635 C7.1553,14.1645 7.1203,14.1685 7.0843,14.1685 C6.6863,14.1685 6.2983,14.1275 5.9183,14.0645 C5.8863,14.0595 5.8553,14.0565 5.8243,14.0505 C5.3393,13.9635 4.8713,13.8295 4.4263,13.6485 C1.8313,12.5965 0.0003,10.0565 0.0003,7.0845 C0.0003,3.1715 3.1723,0.0005 7.0843,0.0005 Z M7.7383,3.2595 L6.4303,3.2595 L6.4303,6.4065 L3.2833,6.4065 L3.2833,7.7625 L6.4303,7.7625 L6.4303,10.9095 L7.7383,10.9095 L7.7383,7.7625 L10.8853,7.7625 L10.8853,6.4065 L7.7383,6.4065 L7.7383,3.2595 Z"/>
  <rect width="100%" height="100%" style="opacity: 0;">
    <title>Home Protector Plus</title>
  </rect>
</svg>