<svg xmlns="http://www.w3.org/2000/svg" focusable="false" role="img" width="32" height="32" viewBox="0 0 32 32">
  <path d="M25.544,16.502 C29.075,16.502 31.948,19.375 31.948,22.906 L31.948,22.906 L30.448,22.906 C30.448,20.202 28.248,18.002 25.544,18.002 C23.5035555,18.002 21.7558674,19.2558398 21.0197787,21.0322932 C21.7284962,22.0621289 22.1431,23.3085363 22.1431,24.6499 L20.6431,24.6499 C20.6431,21.9459 18.4431,19.7459 15.7391,19.7459 C13.0351,19.7459 10.8341,21.9459 10.8341,24.6499 L9.3341,24.6499 C9.3341,23.1238208 9.87075395,21.7206509 10.7653244,20.6192084 C9.94422391,19.0673152 8.32788621,18.0016 6.4525,18.0016 C3.7485,18.0016 1.5485,20.2026 1.5485,22.9066 L1.5485,22.9066 L0.0485,22.9066 C0.0485,19.3746 2.9215,16.5016 6.4525,16.5016 C8.74752155,16.5016 10.7593625,17.7175167 11.889176,19.5369093 C12.9609935,18.726199 14.294962,18.2459 15.7391,18.2459 C17.3449562,18.2459 18.814717,18.8401285 19.9400288,19.8202323 C21.0298394,17.8446394 23.1318453,16.502 25.544,16.502 Z M15.9976,10.1792 C18.0076,10.1792 19.6436,11.8152 19.6436,13.8252 C19.6436,15.8342 18.0076,17.4682 15.9976,17.4682 C13.9876,17.4682 12.3526,15.8342 12.3526,13.8252 C12.3526,11.8152 13.9876,10.1792 15.9976,10.1792 Z M15.9976,11.6792 C14.8146,11.6792 13.8526,12.6422 13.8526,13.8252 C13.8526,15.0072 14.8146,15.9682 15.9976,15.9682 C17.1806,15.9682 18.1436,15.0072 18.1436,13.8252 C18.1436,12.6422 17.1806,11.6792 15.9976,11.6792 Z M6.4039,6.3291 C8.8129,6.3291 10.7739,8.2891 10.7739,10.6991 C10.7739,13.1071 8.8129,15.0651 6.4039,15.0651 C3.9949,15.0651 2.0359,13.1071 2.0359,10.6991 C2.0359,8.2891 3.9949,6.3291 6.4039,6.3291 Z M25.5928,6.3291 C28.0008,6.3291 29.9608,8.2891 29.9608,10.6991 C29.9608,13.1071 28.0008,15.0651 25.5928,15.0651 C23.1828,15.0651 21.2228,13.1071 21.2228,10.6991 C21.2228,8.2891 23.1828,6.3291 25.5928,6.3291 Z M6.4039,7.8291 C4.8219,7.8291 3.5359,9.1171 3.5359,10.6991 C3.5359,12.2801 4.8219,13.5651 6.4039,13.5651 C7.9869,13.5651 9.2739,12.2801 9.2739,10.6991 C9.2739,9.1171 7.9869,7.8291 6.4039,7.8291 Z M25.5928,7.8291 C24.0098,7.8291 22.7228,9.1171 22.7228,10.6991 C22.7228,12.2801 24.0098,13.5651 25.5928,13.5651 C27.1738,13.5651 28.4608,12.2801 28.4608,10.6991 C28.4608,9.1171 27.1738,7.8291 25.5928,7.8291 Z"/>
  <rect width="100%" height="100%" style="opacity: 0;">
    <title>Life</title>
  </rect>
</svg>