<svg xmlns="http://www.w3.org/2000/svg" focusable="false" role="img" width="32" height="32" viewBox="0 0 32 32">
  <path d="M21.8896,4.8528 L25.2516,7.1458 C25.5746,7.3648 25.6746,7.7958 25.4816,8.1358 L25.4816,8.1358 L23.0116,12.4848 L24.5506,15.9338 C25.0756,15.7768 25.6306,15.6898 26.2056,15.6898 C29.4006,15.6898 31.9996,18.2888 31.9996,21.4838 C31.9996,24.6778 29.4006,27.2778 26.2056,27.2778 C23.0106,27.2778 20.4116,24.6778 20.4116,21.4838 C20.4116,19.3968 21.5236,17.5698 23.1826,16.5498 L23.1826,16.5498 L22.0916,14.1048 L17.6866,21.8588 C17.5536,22.0928 17.3046,22.2378 17.0346,22.2378 L17.0346,22.2378 L11.6146,22.2378 C11.2426,25.0768 8.8136,27.2778 5.8746,27.2778 C2.6806,27.2778 0.0806,24.6778 0.0806,21.4838 C0.0806,18.2888 2.6806,15.6898 5.8746,15.6898 C7.1956,15.6898 8.4106,16.1378 9.3856,16.8848 L9.3856,16.8848 L9.7196,16.1588 C9.8426,15.8928 10.1076,15.7228 10.4006,15.7228 L10.4006,15.7228 L17.7826,15.7228 C19.1136,15.7228 20.1976,14.6388 20.1976,13.3078 C20.1976,11.9758 19.1136,10.8928 17.7826,10.8928 L17.7826,10.8928 L13.5656,10.8928 C12.2346,10.8928 11.1506,11.9758 11.1506,13.3078 C11.1506,13.7218 10.8146,14.0578 10.4006,14.0578 L10.4006,14.0578 L1.9146,14.0578 C1.7166,14.0578 1.5256,13.9788 1.3846,13.8378 L1.3846,13.8378 L0.2196,12.6728 L1.2806,11.6118 L2.2256,12.5578 L9.7236,12.5578 C10.0736,10.7568 11.6636,9.3928 13.5656,9.3928 L13.5656,9.3928 L17.7826,9.3928 C19.5246,9.3928 20.9866,10.5438 21.4936,12.1198 L21.4936,12.1198 L23.8356,7.9958 L21.0446,6.0918 L21.8896,4.8528 Z M26.2056,17.1898 C25.8476,17.1898 25.5056,17.2458 25.1726,17.3288 L25.1726,17.3288 L26.5676,20.4538 C26.9836,20.6108 27.2826,21.0068 27.2826,21.4788 C27.2826,22.0878 26.7886,22.5818 26.1796,22.5818 C25.5696,22.5818 25.0756,22.0878 25.0756,21.4788 C25.0756,21.3158 25.1156,21.1638 25.1796,21.0248 L25.1796,21.0248 L23.7986,17.9298 C22.6606,18.7028 21.9116,20.0068 21.9116,21.4838 C21.9116,23.8518 23.8376,25.7778 26.2056,25.7778 C28.5736,25.7778 30.4996,23.8518 30.4996,21.4838 C30.4996,19.1158 28.5736,17.1898 26.2056,17.1898 Z M5.8746,17.1898 C3.5066,17.1898 1.5806,19.1158 1.5806,21.4838 C1.5806,23.8518 3.5066,25.7778 5.8746,25.7778 C7.9846,25.7778 9.7346,24.2458 10.0936,22.2378 L10.0936,22.2378 L6.7036,22.2378 C6.5016,22.4658 6.2146,22.6168 5.8866,22.6168 C5.2766,22.6168 4.7826,22.1228 4.7826,21.5138 C4.7826,20.9038 5.2766,20.4098 5.8866,20.4098 C6.1926,20.4098 6.4696,20.5358 6.6696,20.7378 L6.6696,20.7378 L10.0946,20.7378 C9.7396,18.7258 7.9876,17.1898 5.8746,17.1898 Z M18.6546,17.1168 C18.3736,17.1808 18.0826,17.2228 17.7826,17.2228 L17.7826,17.2228 L15.1386,17.2228 L15.1386,19.3438 L13.6386,19.3438 L13.6386,17.2228 L10.8816,17.2228 L10.5126,18.0238 C11.0946,18.8018 11.4856,19.7288 11.6156,20.7378 L11.6156,20.7378 L16.5976,20.7378 Z M27.6661,8.6577 L27.6661,10.1577 C27.0571,10.1577 26.5621,10.6537 26.5621,11.2627 C26.5621,11.8707 27.0571,12.3667 27.6661,12.3667 L27.6661,12.3667 L27.6661,13.8667 C26.2301,13.8667 25.0621,12.6987 25.0621,11.2627 C25.0621,9.8257 26.2301,8.6577 27.6661,8.6577 L27.6661,8.6577 Z"/>
  <rect width="100%" height="100%" style="opacity: 0;">
    <title>Motorcycle</title>
  </rect>
</svg>