<svg xmlns="http://www.w3.org/2000/svg" focusable="false" role="img" width="32" height="32" viewBox="0 0 32 32">
  <path d="M22.9212343,2.01774444 L23.0271,2.0273 C23.2371,2.0613 23.4231,2.1843 23.5381,2.3643 C23.8221,2.8103 30.5101,13.3733 31.1861,20.0923 C31.9181,27.3683 26.2971,31.0033 21.2601,31.9043 C21.2391,31.9073 21.0611,31.9263 20.8831,31.9443 L20.8831,31.9443 L20.7081,31.9613 L20.9061,30.4343 L21.0321,30.4223 C25.6131,29.6013 30.3221,26.4923 29.6941,20.2423 C29.1511,14.8463 24.2471,6.4113 22.7231,3.8993 C20.3181,5.9563 12.0441,13.4153 10.8201,19.6053 C9.5191,26.1823 16.7881,29.7813 17.7001,30.2043 L17.7001,30.2043 L17.5041,31.7233 C17.3711,31.6763 17.1221,31.5903 17.0891,31.5753 C16.1391,31.1373 7.8171,27.0553 9.3481,19.3143 C9.5881,18.1013 10.0621,16.8583 10.6921,15.6223 L10.6921,15.6223 L10.6781,15.6263 C9.2181,10.6453 5.8601,8.2893 4.6891,7.8013 C4.5611,7.7483 4.5061,7.7433 4.5061,7.7433 L4.5061,7.7433 L4.5191,6.2433 C4.7441,6.2443 4.9891,6.3013 5.2671,6.4173 C6.8071,7.0583 9.9471,9.4123 11.6711,13.9013 C15.4111,7.8853 22.0721,2.4753 22.4351,2.1833 C22.6021,2.0493 22.8151,1.9933 23.0271,2.0273 Z M21.1114,10.4297 L22.5984,10.6257 L20.0154,30.1787 L19.8024,31.7887 L19.3604,31.7307 L18.8254,31.6597 L18.3154,31.5927 L18.4954,30.2247 L21.1114,10.4297 Z M2.124712,0.145108 L2.2454,0.1607 C5.1244,0.7647 7.8014,1.7577 10.2034,3.1127 C11.6204,3.9127 15.1834,6.2727 16.0584,7.0977 L16.0584,7.0977 L15.0304,8.1897 C14.3094,7.5117 10.9114,5.2347 9.4664,4.4197 C7.4164,3.2627 5.1494,2.3837 2.7174,1.8027 C2.5294,3.2577 2.4984,4.5867 2.4404,7.0587 C2.4044,8.5987 2.3584,10.5767 2.2584,13.2967 C2.1734,15.6077 2.7274,17.3977 3.9044,18.6187 C5.5974,20.3747 8.0694,20.3937 8.0944,20.3937 L8.0944,20.3937 L8.1014,21.8937 L8.06733357,21.8935483 C7.70992082,21.8895571 4.89105714,21.7895 2.8394,19.6747 C1.3584,18.1487 0.6584,15.9847 0.7594,13.2417 C0.8594,10.5307 0.9054,8.5587 0.9414,7.0237 C1.0104,4.0447 1.0424,2.6857 1.3514,0.7747 C1.3844,0.5717 1.4984,0.3917 1.6674,0.2757 C1.8364,0.1607 2.0454,0.1177 2.2454,0.1607 Z"/>
  <rect width="100%" height="100%" style="opacity: 0;">
    <title>Paperless</title>
  </rect>
</svg>