<svg xmlns="http://www.w3.org/2000/svg" focusable="false" role="img" width="32" height="32" viewBox="0 0 32 32">
  <path d="M16.4908,27.7495 L16.4908,29.9685 L24.9468,29.9685 L24.9468,31.4685 L7.0528,31.4685 L7.0528,29.9685 L14.9908,29.9685 L14.9908,27.7495 L16.4908,27.7495 Z M10.6941,3.9792 C10.6471,4.2672 10.6161,4.5602 10.6161,4.8612 C10.6161,5.0722 10.6541,5.2732 10.6781,5.4792 L10.6781,5.4792 L1.5001,5.4792 L1.5001,24.5092 L30.5001,24.5092 L30.5001,5.4792 L21.3221,5.4792 C21.3461,5.2732 21.3841,5.0722 21.3841,4.8612 C21.3841,4.5602 21.3521,4.2672 21.3041,3.9792 L21.3041,3.9792 L31.2501,3.9792 C31.6641,3.9792 32.0001,4.3152 32.0001,4.7292 L32.0001,4.7292 L32.0001,25.2592 C32.0001,25.6732 31.6641,26.0092 31.2501,26.0092 L31.2501,26.0092 L0.7501,26.0092 C0.3361,26.0092 0.0001,25.6732 0.0001,25.2592 L0.0001,25.2592 L0.0001,4.7292 C0.0001,4.3152 0.3361,3.9792 0.7501,3.9792 L0.7501,3.9792 Z M16.0738,0.2812 C18.5718,0.2812 20.6538,2.3252 20.6158,4.8612 C20.6158,5.2012 20.5778,5.5422 20.5018,5.8822 C20.4268,6.2992 20.2748,6.7152 20.0478,7.0942 C19.2908,8.4942 17.7768,9.4402 16.0738,9.4402 C14.9388,9.4402 13.9168,9.0622 13.1218,8.3802 C12.7818,8.1162 12.5158,7.7752 12.2888,7.4342 C11.7978,6.7152 11.4938,5.8072 11.4938,4.8612 C11.4938,2.3252 13.5378,0.2812 16.0738,0.2812 Z M16.1578,1.6812 C16.1258,1.5812 15.9848,1.5812 15.9518,1.6812 L15.9518,1.6812 L15.2788,3.7532 C15.2638,3.7982 15.2228,3.8282 15.1758,3.8282 L15.1758,3.8282 L12.9958,3.8282 C12.8908,3.8282 12.8478,3.9622 12.9328,4.0242 L12.9328,4.0242 L14.6958,5.3052 C14.7338,5.3332 14.7498,5.3822 14.7348,5.4262 L14.7348,5.4262 L14.0618,7.4992 C14.0298,7.5992 14.1438,7.6822 14.2288,7.6202 L14.2288,7.6202 L15.9918,6.3392 C16.0298,6.3122 16.0808,6.3122 16.1188,6.3392 L16.1188,6.3392 L17.8818,7.6202 C17.9668,7.6822 18.0808,7.5992 18.0488,7.4992 L18.0488,7.4992 L17.3758,5.4262 C17.3608,5.3822 17.3768,5.3332 17.4148,5.3052 L17.4148,5.3052 L19.1778,4.0242 C19.2628,3.9622 19.2198,3.8282 19.1148,3.8282 L19.1148,3.8282 L16.9348,3.8282 C16.8878,3.8282 16.8458,3.7982 16.8318,3.7532 L16.8318,3.7532 Z"/>
  <rect width="100%" height="100%" style="opacity: 0;">
    <title>Personal Computer Replacement</title>
  </rect>
</svg>