<svg xmlns="http://www.w3.org/2000/svg" focusable="false" role="img" width="32" height="32" viewBox="0 0 32 32">
  <path d="M23.18 14.255c3.377 0 5.914.6 6.962 1.647a.756.756 0 0 1 .188.316c.035.116 3.321 11.604-6.875 15.483a.747.747 0 0 1-.534 0c-8.06-3.067-7.719-10.77-7.198-13.939l.312-1.483a.748.748 0 0 1 .204-.377c1.124-1.124 3.33-1.647 6.94-1.647zm0 1.5c-2.919 0-4.843.36-5.727 1.07l-.256 1.213c-.449 2.738-.76 9.413 5.991 12.157 7.994-3.244 6.141-11.875 5.76-13.348-.69-.527-2.543-1.093-5.769-1.093zM2.607.25l.008 2.096v24.38h12.926v1.5H2.256a1.14 1.14 0 0 1-1.14-1.14V1.414C1.116.773 1.638.25 2.28.25h.328zm21.08 18.219v3.406h3.405v1h-3.405v3.405h-1v-3.405h-3.406v-1h3.406V18.47h1zm-9.638-1.774v1.5H4.612v-1.5h9.438zm4.693-5.312v1.5H4.624v-1.5h14.119zM21.07.251c.63 0 1.14.51 1.14 1.139v11.406h-1.5V1.75H4.562V.25zm-2.327 5.822v1.5H4.624v-1.5h14.119z"/>
  <rect width="100%" height="100%" style="opacity: 0;">
    <title>Policy</title>
  </rect>
</svg>