<svg xmlns="http://www.w3.org/2000/svg" focusable="false" role="img" width="32" height="32" viewBox="0 0 32 32">
  <path d="M31.2291,15.7915 C31.6431,15.7915 31.9791,16.1265 31.9791,16.5415 L31.9791,31.1665 L30.4791,31.1665 L30.4791,17.2915 L23.8031,17.2915 L23.8031,30.3595 C23.8031,30.7735 23.4671,31.1095 23.0531,31.1095 L20.2801,31.1095 L20.2801,29.6095 L22.3031,29.6095 L22.3031,16.5415 C22.3031,16.1265 22.6391,15.7915 23.0531,15.7915 L31.2291,15.7915 Z M19.164,0.948 L19.1638,4.361 L23.51,6.4127 C23.773,6.5367 23.94,6.8017 23.94,7.0917 L23.94,13.9947 L22.441,13.9947 L22.441,7.5667 L18.363,5.6427 L14.387,7.56169235 L14.387,29.6567 L17.753,29.6567 L17.753,27.0847 L19.253,27.0847 L19.253,30.4067 C19.253,30.8207 18.917,31.1567 18.503,31.1567 L13.637,31.1567 C13.223,31.1567 12.887,30.8207 12.887,30.4067 L12.8868,13.111 L5.4088,13.1119 L5.4088,30.3599 C5.4088,30.7739 5.0728,31.1099 4.6588,31.1099 L-0.0042,31.1099 L-0.0042,29.6099 L3.9088,29.6099 L3.9088,12.3619 C3.9088,11.9479 4.2448,11.6119 4.6588,11.6119 L12.8868,11.611 L12.887,7.0917 C12.887,6.8027 13.052,6.5407 13.311,6.4157 L17.6638,4.315 L17.664,0.948 L19.164,0.948 Z M27.753,26.692 L27.753,31.121 L26.253,31.121 L26.253,26.692 L27.753,26.692 Z M9.62,26.692 L9.62,31.121 L8.12,31.121 L8.12,26.692 L9.62,26.692 Z M8.375,22.893 L8.375,24.815 L6.875,24.815 L6.875,22.893 L8.375,22.893 Z M11.41,22.893 L11.41,24.815 L9.91,24.815 L9.91,22.893 L11.41,22.893 Z M17.54,22.893 L17.54,24.815 L16.04,24.815 L16.04,22.893 L17.54,22.893 Z M20.575,22.893 L20.575,24.815 L19.075,24.815 L19.075,22.893 L20.575,22.893 Z M26.607,22.893 L26.607,24.815 L25.107,24.815 L25.107,22.893 L26.607,22.893 Z M29.642,22.893 L29.642,24.815 L28.142,24.815 L28.142,22.893 L29.642,22.893 Z M8.375,18.812 L8.375,20.734 L6.875,20.734 L6.875,18.812 L8.375,18.812 Z M11.41,18.812 L11.41,20.734 L9.91,20.734 L9.91,18.812 L11.41,18.812 Z M17.54,18.812 L17.54,20.734 L16.04,20.734 L16.04,18.812 L17.54,18.812 Z M20.575,18.812 L20.575,20.734 L19.075,20.734 L19.075,18.812 L20.575,18.812 Z M26.607,18.812 L26.607,20.734 L25.107,20.734 L25.107,18.812 L26.607,18.812 Z M29.642,18.812 L29.642,20.734 L28.142,20.734 L28.142,18.812 L29.642,18.812 Z M8.375,14.731 L8.375,16.653 L6.875,16.653 L6.875,14.731 L8.375,14.731 Z M11.41,14.731 L11.41,16.653 L9.91,16.653 L9.91,14.731 L11.41,14.731 Z M17.54,14.731 L17.54,16.653 L16.04,16.653 L16.04,14.731 L17.54,14.731 Z M20.575,14.731 L20.575,16.653 L19.075,16.653 L19.075,14.731 L20.575,14.731 Z M17.54,10.552 L17.54,12.474 L16.04,12.474 L16.04,10.552 L17.54,10.552 Z M20.575,10.552 L20.575,12.474 L19.075,12.474 L19.075,10.552 L20.575,10.552 Z"/>
  <rect width="100%" height="100%" style="opacity: 0;">
    <title>Property</title>
  </rect>
</svg>