<svg xmlns="http://www.w3.org/2000/svg" focusable="false" role="img" width="16" height="16" viewBox="0 0 16 16">
  <path d="M8.0442,14.4355 C8.4812,14.4355 8.8352,14.7905 8.8352,15.2275 C8.8352,15.6645 8.4812,16.0185 8.0442,16.0185 C7.6072,16.0185 7.2532,15.6645 7.2532,15.2275 C7.2532,14.7905 7.6072,14.4355 8.0442,14.4355 Z M8.007,-0.0195 C10.495,-0.0195 12.52,2.0055 12.52,4.4935 C12.52,6.8125 10.761,8.7285 8.507,8.9785 L8.507,12.6675 L7.507,12.6675 L7.507,8.5055 C7.507,8.2295 7.731,8.0055 8.007,8.0055 C9.944,8.0055 11.52,6.4305 11.52,4.4935 C11.52,2.5565 9.944,0.9805 8.007,0.9805 C6.07,0.9805 4.495,2.5565 4.495,4.4935 L3.495,4.4935 C3.495,2.0055 5.519,-0.0195 8.007,-0.0195 Z"/>
  <rect width="100%" height="100%" style="opacity: 0;">
    <title>Question Mark</title>
  </rect>
</svg>