<svg xmlns="http://www.w3.org/2000/svg" focusable="false" role="img" width="32" height="32" viewBox="0 0 32 32">
  <path d="M11.4276,0.0502 C11.6306,0.0532 11.8236,0.1382 11.9616,0.2862 L18.2746,6.9992 C18.4056,7.1382 18.4776,7.3222 18.4776,7.5132 L18.4776,31.8002 L16.9776,31.8002 L16.9776,7.8102 L11.3976,1.8762 L5.4236,7.8252 L5.4236,30.3872 L10.6656,30.3872 L10.6656,27.8272 L12.1656,27.8272 L12.1656,31.1372 C12.1656,31.5512 11.8296,31.8872 11.4156,31.8872 L4.6736,31.8872 C4.2596,31.8872 3.9236,31.5512 3.9236,31.1372 L3.9236,7.5132 C3.9236,7.3132 4.0026,7.1222 4.1446,6.9822 L10.8866,0.2682 C11.0296,0.1252 11.2086,0.0422 11.4276,0.0502 Z M23.6935,20.6729 C25.1395,20.6729 25.8765,21.6319 26.1295,22.5329 C26.4815,22.6159 26.9105,22.7869 27.2765,23.1389 C27.6045,23.4549 27.9955,24.0359 27.9955,25.0119 C27.9955,26.7879 26.3655,27.3379 25.5035,27.3799 L25.4305,25.8819 C25.6035,25.8709 26.4955,25.7749 26.4955,25.0119 C26.4955,24.6519 26.4085,24.3849 26.2365,24.2199 C25.9971,23.9895 25.61514,23.96079 25.529478,23.957352 L25.5115,23.9569 C25.3125,23.9719 25.1165,23.8929 24.9705,23.7549 C24.8245,23.6189 24.7385,23.4289 24.7325,23.2289 C24.7175,22.9169 24.5855,22.1729 23.6935,22.1729 C23.0288253,22.1729 22.7799411,22.6775293 22.6907968,22.9811224 C23.2255098,23.1773801 23.6038955,23.5034343 23.7866,23.7378 L22.6126,24.6718 C22.5996,24.6558 22.2736,24.2778 21.6816,24.3098 C21.3266,24.3288 20.8756,24.7258 20.8756,25.1458 C20.8756,25.5608 20.9796,25.8548 21.1956,26.0438 C21.5886,26.3898 22.3146,26.3838 22.5616,26.3518 C22.5936,26.3468 22.6296,26.3448 22.6626,26.3448 L23.4356,26.3448 C23.8496,26.3448 24.1856,26.6808 24.1856,27.0948 L24.1856,31.6938 L22.6856,31.6938 L22.6856,27.8468 C22.3366,27.8838 21.0976,27.9458 20.2146,27.1788 C19.8316,26.8458 19.3756,26.2228 19.3756,25.1458 C19.3756,24.110072 20.1768366,23.1429113 21.1747648,22.8792932 L21.1605,22.9779 C21.2625,22.1809 21.9235,20.6729 23.6935,20.6729 Z M25.5933,29.0706 C25.6943,29.0706 26.6013,29.0886 27.2423,29.6916 C28.1163,30.5146 28.0813,31.5266 28.0743,31.6396 L26.5773,31.5476 C26.5763,31.5446 26.5803,31.1286 26.2143,30.7836 C26.0273,30.6076 25.6573,30.5706 25.5933,30.5706 L25.5933,29.0706 Z M9.813,23.321 L9.813,24.93 L8.3,24.93 L8.3,23.321 L9.813,23.321 Z M13.977,23.321 L13.977,24.93 L12.464,24.93 L12.464,23.321 L13.977,23.321 Z M9.813,20.103 L9.813,21.712 L8.3,21.712 L8.3,20.103 L9.813,20.103 Z M13.977,20.103 L13.977,21.712 L12.464,21.712 L12.464,20.103 L13.977,20.103 Z M9.813,16.885 L9.813,18.494 L8.3,18.494 L8.3,16.885 L9.813,16.885 Z M13.977,16.885 L13.977,18.494 L12.464,18.494 L12.464,16.885 L13.977,16.885 Z M9.813,13.666 L9.813,15.275 L8.3,15.275 L8.3,13.666 L9.813,13.666 Z M13.977,13.666 L13.977,15.275 L12.464,15.275 L12.464,13.666 L13.977,13.666 Z M9.813,10.448 L9.813,12.057 L8.3,12.057 L8.3,10.448 L9.813,10.448 Z M13.977,10.448 L13.977,12.057 L12.464,12.057 L12.464,10.448 L13.977,10.448 Z M11.3116,5.7144 C12.0016,5.7144 12.5616,6.2744 12.5616,6.9644 C12.5616,7.6544 12.0016,8.2144 11.3116,8.2144 C10.6216,8.2144 10.0616,7.6544 10.0616,6.9644 C10.0616,6.2744 10.6216,5.7144 11.3116,5.7144 Z"/>
  <rect width="100%" height="100%" style="opacity: 0;">
    <title>Renters</title>
  </rect>
</svg>