<svg xmlns="http://www.w3.org/2000/svg" focusable="false" role="img" width="32" height="32" viewBox="0 0 32 32">
  <path d="M22.9346,7.1678 C24.1646,7.1678 25.3416,8.0548 25.7976,9.3258 L27.0035,12.7232 L30.6002,12.7236 C31.4652,12.7236 32.0462,13.3376 32.0462,14.2516 L32.0462,16.0356 C32.0462,16.9456 31.4652,17.5566 30.6002,17.5566 L30.1475,17.5562 L30.2196637,17.6261947 C30.6783153,18.1017792 30.9346,18.7881333 30.9346,19.5728 L30.9348,30.5 C30.9348,31.398 30.3458,32.001 29.4698,32.001 L25.7798,32.001 C24.8658,32.001 23.8788,31.427 23.8788,30.5 L23.8788,29.307 L25.3788,29.307 L25.3788,30.389 C25.4658,30.442 25.6348,30.501 25.7798,30.501 L29.4268,30.501 L29.4348,25.418 L29.4345,24.2222 L25.2272,24.2231 C24.5302,24.2231 23.9342,23.7501 23.7772,23.0731 L23.2732,21.5501 C23.1372,20.9731 23.2502,20.4521 23.5652,20.0561 C23.9022,19.6321 24.4262,19.3901 25.0042,19.3901 L29.4259165,19.3893265 C29.3937996,19.0572977 29.2737241,18.7810257 29.0846,18.6148 L27.3375,17.0002 L4.9845,17.0002 L3.0812,18.6548 C2.83998992,18.8669681 2.67557441,19.1325019 2.62102951,19.3899745 L7.1762,19.3901 C7.7542,19.3901 8.2782,19.6321 8.6152,20.0561 C8.9302,20.4521 9.0432,20.9731 8.9252,21.4851 L8.3842,23.1391 C8.2462,23.7501 7.6502,24.2231 6.9532,24.2231 L2.6005,24.2222 L2.601,30.5 C2.601,30.45 2.71,30.501 2.835,30.501 L6.525,30.501 C6.616,30.501 6.666,30.472 6.675,30.464 L6.657,29.307 L8.157,29.307 L8.157,30.5 C8.157,31.355 7.455,32.001 6.525,32.001 L2.835,32.001 C1.983,32.001 1.101,31.439 1.101,30.5 L1.1012,19.5728 C1.1012,18.8402967 1.45021981,18.1077934 2.06021635,17.5561098 L1.5715,17.5566 C0.6705,17.5566 -0.0095,16.9026 -0.0095,16.0356 L-0.0095,14.2516 C-0.0095,13.3806 0.6705,12.7236 1.5715,12.7236 L5.1785,12.7232 L5.7122,11.0478 L7.1422,11.5028 L5.8685,15.5002 L26.3965,15.5002 L24.3846,9.8298 C24.1476,9.1688 23.5236,8.6678 22.9346,8.6678 L19.3126,8.6678 L19.3126,7.1678 L22.9346,7.1678 Z M27.685,25.775 L27.685,27.275 L4.352,27.275 L4.352,25.775 L27.685,25.775 Z M7.1762,20.8901 L2.6005,20.8892 L2.6005,22.7222 L6.9532,22.7231 L7.4822,21.0811 C7.4842,21.0571 7.4602,21.0141 7.4412,20.9891 C7.4022,20.9411 7.3132,20.8901 7.1762,20.8901 Z M29.4345,20.8892 L25.0042,20.8901 C24.8672,20.8901 24.7782,20.9411 24.7392,20.9891 C24.7202,21.0141 24.6962,21.0571 24.7172,21.1471 L25.2212,22.6701 L29.4345,22.7132 L29.4345,20.8892 Z M27.5355,14.2232 L28.0196,15.5888 L28.5255,16.0562 L30.5452,16.0566 L30.546075,16.0461 L30.546075,16.0461 L30.5462,14.2516 C30.5462,14.2426 30.5462,14.2336 30.5452,14.2246 L27.5355,14.2232 Z M4.7005,14.2232 L1.5715,14.2236 L1.4905,16.0356 L3.7845,16.0562 L4.2452,15.6568 L4.7005,14.2232 Z M12.1905,0.9632 C15.5175,0.9632 18.2245,3.6702 18.2245,6.9972 C18.2245,10.3242 15.5175,13.0322 12.1905,13.0322 C8.8625,13.0322 6.1555,10.3252 6.1555,6.9972 C6.1555,3.6702 8.8625,0.9632 12.1905,0.9632 Z M11.7098,3.1733 L11.7085,3.8402 C10.7946684,3.8408 10.0468956,4.53906039 9.96814001,5.42711987 L9.96129616,5.5768 C9.9593,6.5358 10.7393,7.3188 11.6983,7.3208 L11.6983,7.3208 L11.7005,7.3202 L11.6975,9.0002 L10.4423,8.9978 L10.4403,9.8988 L11.6955,9.9002 L11.6938,10.8193 L12.5938,10.8213 L12.5955,9.9022 L12.6783,9.9028 C13.5849316,9.9028 14.3327044,9.20453961 14.4114603,8.31562986 L14.4183041,8.1658 C14.4193,7.7008 14.2393,7.2638 13.9113,6.9348 C13.5833,6.6058 13.1463,6.4238 12.6813,6.4228 L12.6813,6.4228 L12.6025,6.4222 L12.6065,4.7422 L13.9703,4.7448 L13.9723,3.8448 L12.6085,3.8422 L12.6098,3.1753 L11.7098,3.1733 Z M12.6793,7.3228 C13.1433,7.3238 13.5193,7.7008 13.5183,8.1638 C13.5173,8.6268 13.1403,9.0028 12.6783,9.0028 L12.6783,9.0028 L12.5975,9.0022 L12.6005,7.3222 Z M11.7065,4.7402 L11.7025,6.4202 C11.2729154,6.41987692 10.9196609,6.09772308 10.8686295,5.68400437 L10.8623,5.5788 C10.8633,5.1158 11.2403,4.7408 11.7023,4.7408 L11.7023,4.7408 L11.7065,4.7402 Z"/>
  <rect width="100%" height="100%" style="opacity: 0;">
    <title>Rental Car Reimbursement</title>
  </rect>
</svg>