<svg xmlns="http://www.w3.org/2000/svg" focusable="false" role="img" width="32" height="32" viewBox="0 0 32 32">
  <path d="M27.6344,15.8735 C27.6344,15.9055 27.5854,19.1725 25.0174,22.2825 C22.3624,25.4965 17.9224,25.9795 17.9554,25.9805 L8.2934,25.9805 L8.2934,25.0015 L16.1804,25.0005 C16.3634,24.9935 20.6644,24.7905 23.1524,22.1125 C25.8364,19.2205 25.8674,15.9775 25.8674,15.8405 L25.8674,15.6415 L24.2984,15.6415 L24.2984,15.8405 C24.2984,15.8685 24.2724,18.5995 22.0024,21.0445 C19.9604,23.2435 16.1554,23.4315 16.1494,23.4325 L8.2934,23.4325 L8.2934,22.4155 L16.2564,22.4155 C16.3574,22.4155 18.7694,22.3965 20.5654,20.7435 C22.6304,18.8435 22.9654,15.9875 22.9834,15.7815 L22.9834,15.6415 L21.4144,15.6415 L21.4194,15.6955 C21.4164,15.7195 21.1394,18.0825 19.5034,19.5885 C18.1664,20.8185 16.2724,20.8465 16.2564,20.8465 L8.2934,20.8465 L8.2934,19.4565 L16.1974,19.4545 C16.2804,19.4495 18.2484,19.3125 19.2754,17.8675 C20.1544,16.6295 20.2024,15.4045 20.2054,15.2545 L20.2054,9.3435 L27.6344,9.3435 L27.6344,15.8735 Z M31.2154,1.0495 L27.1724,1.0495 L27.1724,2.6195 L30.4304,2.6195 L30.4304,7.7735 L17.4654,7.7735 L17.4654,2.6195 L20.7244,2.6195 L20.7244,1.0495 L16.6804,1.0495 C16.2474,1.0495 15.8964,1.4015 15.8964,1.8345 L15.8964,8.5585 C15.8964,8.9925 16.2474,9.3435 16.6804,9.3435 L18.6354,9.3435 L18.6364,15.2395 C18.6354,15.2485 18.6034,16.1035 17.9964,16.9585 C17.4124,17.7805 16.1294,17.8865 16.1484,17.8865 L8.2934,17.8865 L8.2934,15.6415 C8.2934,15.2085 7.9424,14.8565 7.5094,14.8565 L0.7844,14.8565 C0.3514,14.8565 0.0004,15.2085 0.0004,15.6415 L0.0004,19.6845 L1.5694,19.6845 L1.5694,16.4265 L6.7244,16.4265 L6.7244,29.3915 L1.5694,29.3915 L1.5694,26.1335 L0.0004,26.1335 L0.0004,30.1765 C0.0004,30.6095 0.3514,30.9605 0.7844,30.9605 L7.5094,30.9605 C7.9424,30.9605 8.2934,30.6095 8.2934,30.1765 L8.2934,27.5495 L18.0324,27.5465 C18.2394,27.5255 23.1514,27.0045 26.2274,23.2815 C29.1704,19.7185 29.2034,16.0305 29.2034,15.8755 L29.2034,9.3435 L31.2154,9.3435 C31.6484,9.3435 32.0004,8.9925 32.0004,8.5585 L32.0004,1.8345 C32.0004,1.4015 31.6484,1.0495 31.2154,1.0495 L31.2154,1.0495 Z"/>
  <rect width="100%" height="100%" style="opacity: 0;">
    <title>Sewer Backup</title>
  </rect>
</svg>