<svg xmlns="http://www.w3.org/2000/svg" focusable="false" role="img" width="32" height="32" viewBox="0 0 32 32">
  <path d="M7.7413,18.6129 C10.9733,18.6129 12.4243,19.3539 12.8973,19.6719 C13.0673,19.7869 13.1853,19.9689 13.2203,20.1719 C13.4243,21.3429 13.5273,22.5719 13.5273,23.8239 C13.5273,29.5089 8.9253,31.4689 8.0023,31.8039 C7.9183,31.8349 7.8293,31.8499 7.7413,31.8499 C7.6523,31.8499 7.5633,31.8349 7.4793,31.8039 C6.5573,31.4689 1.9553,29.5089 1.9553,23.8239 C1.9553,23.7369 1.9593,23.6519 1.9603,23.5659 L1.9603,23.5659 C1.9563,23.4539 1.9633,23.3419 1.9663,23.2309 C1.9693,23.1159 1.9723,23.0009 1.9773,22.8859 C1.9813,22.8039 1.9813,22.7209 1.9863,22.6399 C2.0303,21.7969 2.1183,20.9689 2.2583,20.1689 C2.2933,19.9649 2.4103,19.7839 2.5803,19.6699 C2.9863,19.3969 4.1103,18.8169 6.4493,18.6539 L6.4493,18.6539 C6.8453,18.6299 7.2723,18.6129 7.7413,18.6129 Z M10.6601,21.6985 L6.8261,26.8685 L4.6631,25.2865 L3.7771,26.4975 L6.2941,28.3375 C6.4811,28.4745 6.7001,28.5405 6.9171,28.5405 C7.2421,28.5405 7.5631,28.3925 7.7711,28.1135 L7.7711,28.1135 L11.8651,22.5915 L10.6601,21.6985 Z M17.718,0.1496 C19.298,0.1496 20.583,1.4346 20.583,3.0156 C20.583,3.1726 20.567,3.3266 20.543,3.4766 L20.543,3.4766 L23.814,3.4766 C24.1681981,3.4766 24.4757263,3.67689132 24.6294736,3.97070183 L26.5142,3.9708 C27.4892,3.9708 28.2822,4.7638 28.2822,5.7388 L28.2822,26.1138 C28.2822,27.0888 27.4892,27.8818 26.5142,27.8818 L14.6782,27.8818 L14.6782,26.3818 L26.5142,26.3818 C26.6612,26.3818 26.7822,26.2618 26.7822,26.1138 L26.7822,5.7388 C26.7822,5.5908 26.6612,5.4708 26.5142,5.4708 L8.7592,5.4708 C8.6112,5.4708 8.4912,5.5908 8.4912,5.7388 L8.4912,17.1528 L6.9912,17.1528 L6.9912,5.7388 C6.9912,4.7638 7.7842,3.9708 8.7592,3.9708 L10.8065542,3.97070183 C10.9603654,3.67689132 11.2681047,3.4766 11.623,3.4766 L11.623,3.4766 L14.894,3.4766 C14.869,3.3266 14.853,3.1726 14.853,3.0156 C14.853,1.4346 16.138,0.1496 17.718,0.1496 Z M17.718,1.8606 C17.082,1.8606 16.564,2.3786 16.564,3.0156 C16.564,3.1796 16.599,3.3346 16.661,3.4766 L16.661,3.4766 L16.7015,3.558475 L16.7015,3.558475 L16.748,3.6366 C16.763,3.6596 16.78,3.6816 16.796,3.7036 C16.82,3.7346 16.845,3.7656 16.872,3.7946 C16.89,3.8146 16.908,3.8336 16.928,3.8516 C16.964,3.8866 17.003,3.9186 17.044,3.9486 C17.056,3.9566 17.067,3.9676 17.079,3.9756 L17.0733,3.9706 L18.3629259,3.97137778 C18.3668333,3.96843333 18.3706667,3.96526667 18.3745,3.9621 L18.392,3.9486 C18.433,3.9186 18.472,3.8866 18.508,3.8516 C18.528,3.8336 18.546,3.8146 18.564,3.7946 C18.591,3.7656 18.616,3.7346 18.64,3.7036 C18.656,3.6816 18.673,3.6596 18.688,3.6366 C18.721,3.5856 18.75,3.5326 18.775,3.4766 L18.775,3.4766 L18.8164688,3.367725 C18.85275,3.2565375 18.873,3.1386 18.873,3.0156 C18.873,2.3786 18.355,1.8606 17.718,1.8606 Z"/>
  <rect width="100%" height="100%" style="opacity: 0;">
    <title>Specialty Insurance</title>
  </rect>
</svg>