<svg xmlns="http://www.w3.org/2000/svg" focusable="false" role="img" width="32" height="32" viewBox="0 0 32 32">
  <path d="M22.9909,27.4865 L24.5119,27.4895 C24.5090071,29.0477857 23.2489612,30.3931365 21.6104676,30.6262243 L21.4273,30.6472 C21.3143,30.6582 21.2023,30.6622 21.0913,30.6622 C19.6402565,30.6622 18.4078822,29.8085667 17.9744043,28.4889935 L17.9203,28.3062 L17.8843,28.1572 L19.3713,27.8362 L19.3903,27.9142 L18.6543,28.1122 L19.3913,27.9172 C19.6012218,28.7149029 20.3937096,29.2138284 21.2902982,29.1332902 L21.2909,29.1325 C22.2269,29.0485 22.9889,28.3105 22.9909,27.4865 Z M16.9112,17.8388 C19.5242,17.8388 21.6432,19.9578 21.6432,22.5708 C21.6432,25.1848 19.5242,27.3028 16.9112,27.3028 C14.2972,27.3028 12.1792,25.1848 12.1792,22.5708 C12.1792,19.9578 14.2972,17.8388 16.9112,17.8388 Z M17.3591,25.0879 C18.2071,25.0879 18.8991,24.3989 18.9011011,23.5499 C18.9021,22.6999 18.2131,22.0059 17.3621,22.0049 L17.3621,22.0049 L17.3042,22.0048596 L17.3072,20.5518596 L18.4941,20.5539 L18.4961,19.7389 L17.3092,19.7358596 L17.3106,19.1623 L16.4956,19.1603 L16.4950437,19.7339081 C16.0869273,19.735218 15.7029035,19.8950924 15.4131,20.1839 C15.1211,20.4739 14.9601,20.8609 14.9590953,21.2739 C14.9581,21.6849 15.1171,22.0719 15.4081,22.3639 C15.6991,22.6559 16.0861,22.8169 16.4971,22.8179 L16.4872,22.8178596 L16.4842,24.2708596 L15.3931,24.2689 L15.3911,25.0839 L16.4832,25.0858596 L16.4816,25.8813 L17.2966,25.8833 L17.2982,25.0878596 Z M17.2992,24.2728596 L17.3022,22.8198596 L17.3601,22.8199 C17.5153,22.8199 17.66282,22.86918 17.785764,22.959036 L17.8731,23.0339 C18.0101,23.1709 18.0861,23.3539 18.0851,23.5479 C18.0841,23.9479 17.7581,24.2729 17.3591,24.2729 L17.3591,24.2729 L17.2992,24.2728596 Z M16.4922,20.5498596 L16.4899196,22.0027966 C16.2993639,21.9994848 16.1209368,21.9237368 15.9861,21.7889 C15.8491,21.6509 15.7741,21.4689 15.7741,21.2749 C15.7751,20.8749 16.1011,20.5499 16.5011,20.5499 L16.4922,20.5498596 Z M10.6222,5.1855 C10.7852,5.5725 10.6042,6.0185 10.2172,6.1815 C7.4022,7.3695 5.2832,9.1685 3.7382,11.6825 C2.9872,12.9015 2.4642,14.1725 2.1552,15.5315 C4.5142,14.4115 6.9422,14.5675 9.3932,16.0065 C9.7552,16.2185 9.8762,16.6845 9.6642,17.0465 C9.4522,17.4095 8.9862,17.5305 8.6242,17.3175 C6.1942,15.8925 3.8912,15.9955 1.5812,17.6315 L0.2072,18.6045 L0.3852,16.9315 C0.6152,14.7655 1.3072,12.7315 2.4422,10.8855 C4.1352,8.1325 6.5522,6.0785 9.6252,4.7805 C10.0132,4.6185 10.4592,4.7985 10.6222,5.1855 Z M15.5953,4.2572 C16.7513,5.0322 17.7153,6.1212 18.6283,7.6822 C19.4843,9.1442 20.2053,10.7172 20.7723,12.3582 L21.9283,15.7712 L20.1923,14.7862 C18.8623,14.0312 17.4373,13.9392 16.3933,14.0192 L16.9403,16.5452 L15.4543,16.8672 L14.9173948,14.3822833 C13.9317665,14.7724161 12.7529363,15.4462596 11.8823,16.5935 L10.7033,18.1475 L10.3683,14.6035 C10.2143,12.8725 10.2363,11.1365 10.4323,9.4455 C10.6433,7.6385 11.1003,6.2415 11.8703,5.0505 C12.0983,4.6985 12.5693,4.5965 12.9223,4.8245 C13.2743,5.0535 13.3753,5.5235 13.1473,5.8765 C12.5083,6.8645 12.1253,8.0545 11.9433,9.6215 C11.7703362,11.1063421 11.7411973,12.6287037 11.8567276,14.1522787 C12.6888975,13.503825 13.7396182,12.9939819 14.8837,12.6902 C16.4570941,12.2721733 18.0223834,12.2822279 19.2829496,12.7026552 L19.3103,12.7842 C18.7803,11.2632 18.1093,9.8052 17.3163,8.4502 C16.5223,7.0942 15.7063,6.1622 14.7473,5.5192 L15.5953,4.2572 Z M26.8271,5.9369 C28.6241,7.1489 30.0941,8.7149 31.1971,10.5919 L32.0501,12.0429 L30.3981,11.7239 C27.6201,11.1899 25.4791,12.0459 23.8551,14.3479 C23.7071,14.5579 23.4721,14.6699 23.2331,14.6699 C23.0811,14.6699 22.9281,14.6249 22.7951,14.5309 C22.4521,14.2889 22.3701,13.8149 22.6121,13.4709 C24.2511,11.1489 26.4331,10.0259 29.0081,10.0489 C28.1651,8.9389 27.1641,7.9979 25.9771,7.1969 C23.5301,5.5469 20.8641,4.7889 17.8031,4.8639 C17.3891,4.8719 17.0341,4.5439 17.0231,4.1239 C17.0121,3.7039 17.3431,3.3549 17.7631,3.3439 C21.1061,3.2589 24.1471,4.1279 26.8271,5.9369 Z M15.4728,2.8647 C15.5658,3.2957 14.7588,3.8357 13.6688,4.0707 C12.5798,4.3057 11.6208,4.1477 11.5288,3.7177 C11.4348,3.2867 12.2428,2.7467 13.3318,2.5107 C14.4208,2.2757 15.3798,2.4337 15.4728,2.8647 Z"/>
  <rect width="100%" height="100%" style="opacity: 0;">
    <title>Umbrella Open</title>
  </rect>
</svg>