<svg xmlns="http://www.w3.org/2000/svg" focusable="false" role="img" width="32" height="32" viewBox="0 0 32 32">
  <path d="M13.2925,9.0779 L23.6805,14.4689 C23.9215,14.5939 24.0755,14.8379 24.0845,15.1089 L24.4465,25.6549 C24.4585,25.9799 24.2585,26.2749 23.9535,26.3859 L8.4285,32.0339 C8.3435,32.0649 8.2565,32.0789 8.1715,32.0789 C7.8965,32.0789 7.6365,31.9269 7.5065,31.6749 C7.4025,31.5819 7.3235,31.4599 7.2845,31.3159 L2.9945,15.6959 C2.9065,15.3759 3.0395,15.0359 3.3205,14.8609 L12.5495,9.1079 C12.7755,8.9669 13.0565,8.9559 13.2925,9.0779 Z M4.88961291,16.937 L8.5835,30.3809 L21.8186129,25.566 L4.88961291,16.937 Z M22.6296129,16.472 L15.8066129,20.817 L22.9036129,24.435 L22.6296129,16.472 Z M13.7866129,11.024 L14.4096129,19.927 L21.8336129,15.2 L13.7866129,11.024 Z M12.2846129,11.04 L5.23861291,15.431 L12.8636129,19.318 L12.2846129,11.04 Z M30.1298,7.7677 L31.0058,8.9857 L25.3458,13.0527 L24.4708,11.8347 L30.1298,7.7677 Z M23.0696,1.1358 L24.4076,1.8148 L20.1666,10.1748 L18.8286,9.4958 L23.0696,1.1358 Z M14.7667,-0.024 L14.8297,6.944 L13.3297,6.958 L13.2677,-0.011 L14.7667,-0.024 Z"/>
  <rect width="100%" height="100%" style="opacity: 0;">
    <title>Valuables</title>
  </rect>
</svg>