<svg xmlns="http://www.w3.org/2000/svg" focusable="false" role="img" width="32" height="32" viewBox="0 0 32 32">
  <path d="M25.0464,23.4624 L19.5364,23.4444 L19.5414,21.9444 L24.9424,21.9624 C25.1084,17.0464 23.7254,14.0374 22.6694,12.2074 C21.6644,10.4674 19.6874,8.4744 19.6674,8.4544 L19.1384,7.9234 L20.2004,6.8644 L20.7304,7.3964 C20.8174,7.4834 22.8664,9.5494 23.9674,11.4574 C25.1184,13.4494 26.6254,16.7224 26.4274,22.1204 C26.4014,22.8224 25.7424,23.4624 25.0464,23.4624 L25.0464,23.4624 Z M16.7214,3.7034 L6.8314,21.9224 L16.7214,21.9224 L16.7214,3.7034 Z M5.5704,23.4224 C5.3064,23.4224 5.0614,23.2834 4.9264,23.0564 C4.7914,22.8294 4.7854,22.5474 4.9114,22.3154 L16.8124,0.3914 C16.9754,0.0894 17.3204,-0.0626 17.6564,0.0224 C17.9884,0.1064 18.2214,0.4054 18.2214,0.7494 L18.2214,22.6724 C18.2214,23.0864 17.8854,23.4224 17.4714,23.4224 L5.5704,23.4224 Z M5.8014,26.7084 C6.0424,28.0394 6.8334,30.5704 9.3764,30.5704 C9.3994,30.5704 9.4214,30.5704 9.4444,30.5704 L21.9764,30.5694 C24.2084,30.5694 25.2154,28.0624 25.5984,26.6954 L5.8014,26.7084 Z M9.3594,32.0714 C5.5374,32.0714 4.3144,28.1104 4.2034,25.9984 L4.1624,25.2094 L27.4124,25.1944 L27.2814,26.0574 C27.2434,26.3034 26.3174,32.0694 21.9764,32.0694 L9.4574,32.0704 C9.4244,32.0704 9.3914,32.0714 9.3594,32.0714 L9.3594,32.0714 Z"/>
  <rect width="100%" height="100%" style="opacity: 0;">
    <title>Watercraft</title>
  </rect>
</svg>